<svg width="187" height="68" viewBox="0 0 187 68" fill="none" xmlns="http://www.w3.org/2000/svg">
<path d="M25.8984 14.1172V15.4648C25.8984 17.6263 25.6055 19.5664 25.0195 21.2852C24.4336 23.0039 23.6068 24.4688 22.5391 25.6797C21.4714 26.8776 20.1953 27.7956 18.7109 28.4336C17.2396 29.0716 15.6055 29.3906 13.8086 29.3906C12.0247 29.3906 10.3906 29.0716 8.90625 28.4336C7.4349 27.7956 6.15885 26.8776 5.07812 25.6797C3.9974 24.4688 3.15755 23.0039 2.55859 21.2852C1.97266 19.5664 1.67969 17.6263 1.67969 15.4648V14.1172C1.67969 11.9427 1.97266 10.0026 2.55859 8.29688C3.14453 6.57812 3.97135 5.11328 5.03906 3.90234C6.11979 2.69141 7.39583 1.76693 8.86719 1.12891C10.3516 0.490885 11.9857 0.171875 13.7695 0.171875C15.5664 0.171875 17.2005 0.490885 18.6719 1.12891C20.1562 1.76693 21.4323 2.69141 22.5 3.90234C23.5807 5.11328 24.4141 6.57812 25 8.29688C25.599 10.0026 25.8984 11.9427 25.8984 14.1172ZM19.9805 15.4648V14.0781C19.9805 12.5677 19.8438 11.2396 19.5703 10.0938C19.2969 8.94792 18.8932 7.98438 18.3594 7.20312C17.8255 6.42188 17.1745 5.83594 16.4062 5.44531C15.638 5.04167 14.7591 4.83984 13.7695 4.83984C12.7799 4.83984 11.901 5.04167 11.1328 5.44531C10.3776 5.83594 9.73307 6.42188 9.19922 7.20312C8.67839 7.98438 8.28125 8.94792 8.00781 10.0938C7.73438 11.2396 7.59766 12.5677 7.59766 14.0781V15.4648C7.59766 16.9622 7.73438 18.2904 8.00781 19.4492C8.28125 20.5951 8.6849 21.5651 9.21875 22.3594C9.7526 23.1406 10.4036 23.7331 11.1719 24.1367C11.9401 24.5404 12.819 24.7422 13.8086 24.7422C14.7982 24.7422 15.6771 24.5404 16.4453 24.1367C17.2135 23.7331 17.8581 23.1406 18.3789 22.3594C18.8997 21.5651 19.2969 20.5951 19.5703 19.4492C19.8438 18.2904 19.9805 16.9622 19.9805 15.4648ZM45.8203 0.5625H51.6602V19.3516C51.6602 21.5391 51.1914 23.3815 50.2539 24.8789C49.3294 26.3763 48.0469 27.5026 46.4062 28.2578C44.7786 29.013 42.9036 29.3906 40.7812 29.3906C38.6589 29.3906 36.7708 29.013 35.1172 28.2578C33.4766 27.5026 32.1875 26.3763 31.25 24.8789C30.3255 23.3815 29.8633 21.5391 29.8633 19.3516V0.5625H35.7227V19.3516C35.7227 20.6276 35.9245 21.6693 36.3281 22.4766C36.7318 23.2839 37.3112 23.8763 38.0664 24.2539C38.8346 24.6315 39.7396 24.8203 40.7812 24.8203C41.849 24.8203 42.7539 24.6315 43.4961 24.2539C44.2513 23.8763 44.8242 23.2839 45.2148 22.4766C45.6185 21.6693 45.8203 20.6276 45.8203 19.3516V0.5625ZM69.1992 0.5625V29H63.3594V0.5625H69.1992ZM77.9492 0.5625V5.15234H54.7461V0.5625H77.9492ZM90.0195 29H83.8281L83.8672 24.4297H90.0195C91.556 24.4297 92.8516 24.0846 93.9062 23.3945C94.9609 22.6914 95.7552 21.6693 96.2891 20.3281C96.8359 18.987 97.1094 17.3659 97.1094 15.4648V14.0781C97.1094 12.6198 96.9531 11.3372 96.6406 10.2305C96.3411 9.1237 95.8919 8.19271 95.293 7.4375C94.694 6.68229 93.9583 6.11589 93.0859 5.73828C92.2135 5.34766 91.2109 5.15234 90.0781 5.15234H83.7109V0.5625H90.0781C91.9792 0.5625 93.7174 0.888021 95.293 1.53906C96.8815 2.17708 98.2552 3.09505 99.4141 4.29297C100.573 5.49089 101.465 6.92318 102.09 8.58984C102.728 10.2435 103.047 12.0859 103.047 14.1172V15.4648C103.047 17.4831 102.728 19.3255 102.09 20.9922C101.465 22.6589 100.573 24.0911 99.4141 25.2891C98.2682 26.474 96.8945 27.3919 95.293 28.043C93.7044 28.681 91.9466 29 90.0195 29ZM87.1484 0.5625V29H81.2891V0.5625H87.1484ZM130.664 14.1172V15.4648C130.664 17.6263 130.371 19.5664 129.785 21.2852C129.199 23.0039 128.372 24.4688 127.305 25.6797C126.237 26.8776 124.961 27.7956 123.477 28.4336C122.005 29.0716 120.371 29.3906 118.574 29.3906C116.79 29.3906 115.156 29.0716 113.672 28.4336C112.201 27.7956 110.924 26.8776 109.844 25.6797C108.763 24.4688 107.923 23.0039 107.324 21.2852C106.738 19.5664 106.445 17.6263 106.445 15.4648V14.1172C106.445 11.9427 106.738 10.0026 107.324 8.29688C107.91 6.57812 108.737 5.11328 109.805 3.90234C110.885 2.69141 112.161 1.76693 113.633 1.12891C115.117 0.490885 116.751 0.171875 118.535 0.171875C120.332 0.171875 121.966 0.490885 123.438 1.12891C124.922 1.76693 126.198 2.69141 127.266 3.90234C128.346 5.11328 129.18 6.57812 129.766 8.29688C130.365 10.0026 130.664 11.9427 130.664 14.1172ZM124.746 15.4648V14.0781C124.746 12.5677 124.609 11.2396 124.336 10.0938C124.062 8.94792 123.659 7.98438 123.125 7.20312C122.591 6.42188 121.94 5.83594 121.172 5.44531C120.404 5.04167 119.525 4.83984 118.535 4.83984C117.546 4.83984 116.667 5.04167 115.898 5.44531C115.143 5.83594 114.499 6.42188 113.965 7.20312C113.444 7.98438 113.047 8.94792 112.773 10.0938C112.5 11.2396 112.363 12.5677 112.363 14.0781V15.4648C112.363 16.9622 112.5 18.2904 112.773 19.4492C113.047 20.5951 113.451 21.5651 113.984 22.3594C114.518 23.1406 115.169 23.7331 115.938 24.1367C116.706 24.5404 117.585 24.7422 118.574 24.7422C119.564 24.7422 120.443 24.5404 121.211 24.1367C121.979 23.7331 122.624 23.1406 123.145 22.3594C123.665 21.5651 124.062 20.5951 124.336 19.4492C124.609 18.2904 124.746 16.9622 124.746 15.4648ZM158.242 14.1172V15.4648C158.242 17.6263 157.949 19.5664 157.363 21.2852C156.777 23.0039 155.951 24.4688 154.883 25.6797C153.815 26.8776 152.539 27.7956 151.055 28.4336C149.583 29.0716 147.949 29.3906 146.152 29.3906C144.368 29.3906 142.734 29.0716 141.25 28.4336C139.779 27.7956 138.503 26.8776 137.422 25.6797C136.341 24.4688 135.501 23.0039 134.902 21.2852C134.316 19.5664 134.023 17.6263 134.023 15.4648V14.1172C134.023 11.9427 134.316 10.0026 134.902 8.29688C135.488 6.57812 136.315 5.11328 137.383 3.90234C138.464 2.69141 139.74 1.76693 141.211 1.12891C142.695 0.490885 144.329 0.171875 146.113 0.171875C147.91 0.171875 149.544 0.490885 151.016 1.12891C152.5 1.76693 153.776 2.69141 154.844 3.90234C155.924 5.11328 156.758 6.57812 157.344 8.29688C157.943 10.0026 158.242 11.9427 158.242 14.1172ZM152.324 15.4648V14.0781C152.324 12.5677 152.188 11.2396 151.914 10.0938C151.641 8.94792 151.237 7.98438 150.703 7.20312C150.169 6.42188 149.518 5.83594 148.75 5.44531C147.982 5.04167 147.103 4.83984 146.113 4.83984C145.124 4.83984 144.245 5.04167 143.477 5.44531C142.721 5.83594 142.077 6.42188 141.543 7.20312C141.022 7.98438 140.625 8.94792 140.352 10.0938C140.078 11.2396 139.941 12.5677 139.941 14.0781V15.4648C139.941 16.9622 140.078 18.2904 140.352 19.4492C140.625 20.5951 141.029 21.5651 141.562 22.3594C142.096 23.1406 142.747 23.7331 143.516 24.1367C144.284 24.5404 145.163 24.7422 146.152 24.7422C147.142 24.7422 148.021 24.5404 148.789 24.1367C149.557 23.7331 150.202 23.1406 150.723 22.3594C151.243 21.5651 151.641 20.5951 151.914 19.4492C152.188 18.2904 152.324 16.9622 152.324 15.4648ZM162.461 0.5625H173.066C175.241 0.5625 177.109 0.888021 178.672 1.53906C180.247 2.1901 181.458 3.15365 182.305 4.42969C183.151 5.70573 183.574 7.27474 183.574 9.13672C183.574 10.6602 183.314 11.9688 182.793 13.0625C182.285 14.1432 181.562 15.0482 180.625 15.7773C179.701 16.4935 178.613 17.0664 177.363 17.4961L175.508 18.4727H166.289L166.25 13.9023H173.105C174.134 13.9023 174.987 13.7201 175.664 13.3555C176.341 12.9909 176.849 12.4831 177.188 11.832C177.539 11.181 177.715 10.4258 177.715 9.56641C177.715 8.65495 177.546 7.86719 177.207 7.20312C176.868 6.53906 176.354 6.03125 175.664 5.67969C174.974 5.32812 174.108 5.15234 173.066 5.15234H168.32V29H162.461V0.5625ZM178.359 29L171.875 16.3242L178.066 16.2852L184.629 28.7266V29H178.359ZM4.38139 67H0.770597L8.88388 44.4545H12.8139L20.9272 67H17.3164L10.9425 48.5497H10.7663L4.38139 67ZM4.98686 58.1712H16.6999V61.0334H4.98686V58.1712ZM31.4816 67H24.183V44.4545H31.7128C33.9218 44.4545 35.819 44.9059 37.4042 45.8086C38.9894 46.704 40.204 47.9919 41.048 49.6726C41.8994 51.3459 42.325 53.3531 42.325 55.6942C42.325 58.0427 41.8957 60.061 41.037 61.7489C40.1857 63.4369 38.9527 64.7359 37.3382 65.646C35.7236 66.5487 33.7714 67 31.4816 67ZM27.5846 64.0277H31.2945C33.0118 64.0277 34.4392 63.7048 35.5768 63.0589C36.7143 62.4058 37.5657 61.4627 38.1308 60.2298C38.6959 58.9895 38.9784 57.4776 38.9784 55.6942C38.9784 53.9255 38.6959 52.4247 38.1308 51.1918C37.573 49.9588 36.74 49.0231 35.6318 48.3846C34.5236 47.7461 33.1476 47.4268 31.5036 47.4268H27.5846V64.0277ZM47.4055 44.4545L53.6803 62.8168H53.9335L60.2084 44.4545H63.8852L55.7719 67H51.8419L43.7286 44.4545H47.4055ZM67.141 67V44.4545H81.2759V47.3828H70.5426V54.2521H80.5384V57.1694H70.5426V64.0717H81.408V67H67.141ZM104.017 44.4545V67H100.89L89.4305 50.4652H89.2213V67H85.8197V44.4545H88.9681L100.439 61.0114H100.648V44.4545H104.017ZM107.867 47.3828V44.4545H125.316V47.3828H118.281V67H114.89V47.3828H107.867ZM143.669 44.4545H147.082V59.283C147.082 60.8609 146.712 62.259 145.97 63.4773C145.229 64.6882 144.187 65.6423 142.844 66.3395C141.501 67.0294 139.927 67.3743 138.121 67.3743C136.323 67.3743 134.753 67.0294 133.41 66.3395C132.066 65.6423 131.024 64.6882 130.283 63.4773C129.542 62.259 129.171 60.8609 129.171 59.283V44.4545H132.573V59.0078C132.573 60.0279 132.797 60.9343 133.244 61.7269C133.699 62.5195 134.342 63.1433 135.171 63.5984C136 64.046 136.984 64.2699 138.121 64.2699C139.266 64.2699 140.253 64.046 141.082 63.5984C141.919 63.1433 142.558 62.5195 142.998 61.7269C143.446 60.9343 143.669 60.0279 143.669 59.0078V44.4545ZM152.028 67V44.4545H160.064C161.811 44.4545 163.26 44.7554 164.412 45.3572C165.572 45.959 166.438 46.792 167.01 47.8562C167.583 48.913 167.869 50.1349 167.869 51.522C167.869 52.9018 167.579 54.1164 166.999 55.1658C166.427 56.208 165.561 57.0189 164.401 57.5987C163.249 58.1785 161.8 58.4684 160.053 58.4684H153.965V55.5401H159.745C160.846 55.5401 161.741 55.3823 162.431 55.0668C163.128 54.7512 163.638 54.2925 163.961 53.6907C164.284 53.0889 164.445 52.366 164.445 51.522C164.445 50.6707 164.28 49.9331 163.95 49.3093C163.627 48.6855 163.117 48.2085 162.42 47.8782C161.73 47.5406 160.824 47.3718 159.701 47.3718H155.429V67H152.028ZM163.157 56.8281L168.728 67H164.853L159.392 56.8281H163.157ZM172.008 67V44.4545H186.143V47.3828H175.41V54.2521H185.406V57.1694H175.41V64.0717H186.275V67H172.008Z" fill="white"/>
</svg>
